<svg width="9px" height="14px" viewBox="0 0 9 14" version="1.1" xmlns="http://www.w3.org/2000/svg" xmlns:xlink="http://www.w3.org/1999/xlink">
    <g id="Desktop" stroke="none" stroke-width="1" fill="none" fill-rule="evenodd">
        <g id="01.00-Desktop---Home-page" transform="translate(-1398.000000, -408.000000)">
            <rect fill="#FFF1E9" x="0" y="0" width="1440" height="6915"></rect>
            <g id="Group-5" transform="translate(1390.000000, 305.000000)" fill="#181818">
                <g id="Icon-/-Base-/-Arrow-Left" transform="translate(0.000000, 98.000000)">
                    <path d="M12.7854395,16 C12.4290226,16 12.0942723,15.9269611 11.8927721,15.7002885 L6.19010075,9.29720809 C5.85210047,8.91522283 5.9766839,8.40814789 6.46960098,8.14537561 C6.96468472,7.88176381 7.63743527,7.98838387 7.97651889,8.37036913 L12.7366895,13.7450277 L16.9952763,8.40982695 C17.3094433,8.01440924 17.9756938,7.8935172 18.4870276,8.13781986 C18.9951113,8.38212252 19.1521948,8.89843227 18.8380279,9.29301045 L13.707357,15.6658678 C13.5145235,15.9068124 13.1776065,16 12.8103562,16 L12.7854395,16 Z" id="Fill-1" transform="translate(12.499938, 12.000000) rotate(-270.000000) translate(-12.499938, -12.000000) "></path>
                </g>
            </g>
        </g>
    </g>
</svg>